<?xml version="1.0" encoding="UTF-8" standalone="no"?>
<svg
   xmlns:dc="http://purl.org/dc/elements/1.1/"
   xmlns:cc="http://creativecommons.org/ns#"
   xmlns:rdf="http://www.w3.org/1999/02/22-rdf-syntax-ns#"
   xmlns:svg="http://www.w3.org/2000/svg"
   xmlns="http://www.w3.org/2000/svg"
   xmlns:sodipodi="http://sodipodi.sourceforge.net/DTD/sodipodi-0.dtd"
   xmlns:inkscape="http://www.inkscape.org/namespaces/inkscape"
   version="1.1"
   id="Capa_1"
   x="0px"
   y="0px"
   viewBox="0 0 55.867 55.867"
   style="enable-background:new 0 0 55.867 55.867;"
   xml:space="preserve"
   width="512px"
   height="512px"
   sodipodi:docname="icon_4.svg"
   inkscape:version="1.0rc1 (09960d6, 2020-04-09)"><metadata
   id="metadata398"><rdf:RDF><cc:Work
       rdf:about=""><dc:format>image/svg+xml</dc:format><dc:type
         rdf:resource="http://purl.org/dc/dcmitype/StillImage" /></cc:Work></rdf:RDF></metadata><defs
   id="defs396" /><sodipodi:namedview
   inkscape:document-rotation="0"
   pagecolor="#ffffff"
   bordercolor="#666666"
   borderopacity="1"
   objecttolerance="10"
   gridtolerance="10"
   guidetolerance="10"
   inkscape:pageopacity="0"
   inkscape:pageshadow="2"
   inkscape:window-width="1228"
   inkscape:window-height="806"
   id="namedview394"
   showgrid="false"
   inkscape:zoom="0.53125"
   inkscape:cx="-468.70588"
   inkscape:cy="256"
   inkscape:window-x="147"
   inkscape:window-y="23"
   inkscape:window-maximized="0"
   inkscape:current-layer="Capa_1" />
<path
   d="M11.287,54.548c-0.207,0-0.414-0.064-0.588-0.191c-0.308-0.224-0.462-0.603-0.397-0.978l3.091-18.018L0.302,22.602  c-0.272-0.266-0.37-0.663-0.253-1.024c0.118-0.362,0.431-0.626,0.808-0.681l18.09-2.629l8.091-16.393  c0.168-0.342,0.516-0.558,0.896-0.558l0,0c0.381,0,0.729,0.216,0.896,0.558l8.09,16.393l18.091,2.629  c0.377,0.055,0.689,0.318,0.808,0.681c0.117,0.361,0.02,0.759-0.253,1.024L42.475,35.363l3.09,18.017  c0.064,0.375-0.09,0.754-0.397,0.978c-0.308,0.226-0.717,0.255-1.054,0.076l-16.18-8.506l-16.182,8.506  C11.606,54.51,11.446,54.548,11.287,54.548z M3.149,22.584l12.016,11.713c0.235,0.229,0.343,0.561,0.287,0.885L12.615,51.72  l14.854-7.808c0.291-0.154,0.638-0.154,0.931,0l14.852,7.808l-2.836-16.538c-0.056-0.324,0.052-0.655,0.287-0.885l12.016-11.713  l-16.605-2.413c-0.326-0.047-0.607-0.252-0.753-0.547L27.934,4.578l-7.427,15.047c-0.146,0.295-0.427,0.5-0.753,0.547L3.149,22.584z  "
   fill="#de4f32"
   id="path361"
   style="fill:#c87137;fill-opacity:1" />
<g
   id="g363">
</g>
<g
   id="g365">
</g>
<g
   id="g367">
</g>
<g
   id="g369">
</g>
<g
   id="g371">
</g>
<g
   id="g373">
</g>
<g
   id="g375">
</g>
<g
   id="g377">
</g>
<g
   id="g379">
</g>
<g
   id="g381">
</g>
<g
   id="g383">
</g>
<g
   id="g385">
</g>
<g
   id="g387">
</g>
<g
   id="g389">
</g>
<g
   id="g391">
</g>
</svg>
