<?xml version="1.0" encoding="UTF-8" standalone="no"?>
<svg
   xmlns:dc="http://purl.org/dc/elements/1.1/"
   xmlns:cc="http://creativecommons.org/ns#"
   xmlns:rdf="http://www.w3.org/1999/02/22-rdf-syntax-ns#"
   xmlns:svg="http://www.w3.org/2000/svg"
   xmlns="http://www.w3.org/2000/svg"
   xmlns:sodipodi="http://sodipodi.sourceforge.net/DTD/sodipodi-0.dtd"
   xmlns:inkscape="http://www.inkscape.org/namespaces/inkscape"
   inkscape:version="1.0rc1 (09960d6, 2020-04-09)"
   sodipodi:docname="icon_2.svg"
   height="512px"
   width="512px"
   xml:space="preserve"
   style="enable-background:new 0 0 58 58;"
   viewBox="0 0 58 58"
   y="0px"
   x="0px"
   id="Capa_1"
   version="1.1"><metadata
   id="metadata320"><rdf:RDF><cc:Work
       rdf:about=""><dc:format>image/svg+xml</dc:format><dc:type
         rdf:resource="http://purl.org/dc/dcmitype/StillImage" /></cc:Work></rdf:RDF></metadata><defs
   id="defs318" /><sodipodi:namedview
   inkscape:current-layer="g283"
   inkscape:window-maximized="0"
   inkscape:window-y="0"
   inkscape:window-x="0"
   inkscape:cy="256"
   inkscape:cx="-106.35294"
   inkscape:zoom="0.53125"
   showgrid="false"
   id="namedview316"
   inkscape:window-height="900"
   inkscape:window-width="1440"
   inkscape:pageshadow="2"
   inkscape:pageopacity="0"
   guidetolerance="10"
   gridtolerance="10"
   objecttolerance="10"
   borderopacity="1"
   bordercolor="#666666"
   pagecolor="#ffffff" />
<g
   id="g283">
	<path
   style="fill:#c87137;fill-opacity:1"
   id="path279"
   fill="#de4f32"
   d="M44,28c-0.552,0-1,0.447-1,1v6c0,7.72-6.28,14-14,14s-14-6.28-14-14v-6c0-0.553-0.448-1-1-1s-1,0.447-1,1v6   c0,8.485,6.644,15.429,15,15.949V56h-5c-0.552,0-1,0.447-1,1s0.448,1,1,1h12c0.552,0,1-0.447,1-1s-0.448-1-1-1h-5v-5.051   c8.356-0.52,15-7.465,15-15.949v-6C45,28.447,44.552,28,44,28z" />
	<path
   style="fill:#c87137;fill-opacity:1"
   id="path281"
   fill="#de4f32"
   d="M29,46c6.065,0,11-4.935,11-11V11c0-6.065-4.935-11-11-11S18,4.935,18,11v24C18,41.065,22.935,46,29,46z M20,11   c0-4.963,4.038-9,9-9s9,4.037,9,9v24c0,4.963-4.038,9-9,9s-9-4.037-9-9V11z" />
</g>
<g
   id="g285">
</g>
<g
   id="g287">
</g>
<g
   id="g289">
</g>
<g
   id="g291">
</g>
<g
   id="g293">
</g>
<g
   id="g295">
</g>
<g
   id="g297">
</g>
<g
   id="g299">
</g>
<g
   id="g301">
</g>
<g
   id="g303">
</g>
<g
   id="g305">
</g>
<g
   id="g307">
</g>
<g
   id="g309">
</g>
<g
   id="g311">
</g>
<g
   id="g313">
</g>
</svg>
