<svg enable-background="new 0 0 60 60" height="512" viewBox="0 0 60 60" width="512" xmlns="http://www.w3.org/2000/svg"><g fill="#c87137"><path d="m30 0c-16.542 0-30 13.458-30 30s13.458 30 30 30 30-13.458 30-30-13.458-30-30-30zm0 58c-15.439 0-28-12.561-28-28s12.561-28 28-28 28 12.561 28 28-12.561 28-28 28z"/><path d="m23.165 8.459c.537-.13.868-.67.739-1.206-.129-.537-.67-.866-1.206-.739-3.935.946-7.522 2.955-10.376 5.809s-4.862 6.441-5.808 10.375c-.129.536.202 1.076.739 1.206.078.019.157.027.234.027.451 0 .861-.308.972-.767.859-3.575 2.685-6.836 5.277-9.429s5.854-4.417 9.429-5.276z"/><path d="m52.747 36.096c-.538-.129-1.077.201-1.206.739-.859 3.575-2.685 6.836-5.277 9.429s-5.854 4.418-9.43 5.277c-.537.13-.868.67-.739 1.206.11.459.521.767.972.767.077 0 .156-.009.234-.027 3.936-.946 7.523-2.955 10.377-5.809s4.862-6.441 5.809-10.376c.128-.536-.203-1.076-.74-1.206z"/><path d="m24.452 13.286c.538-.125.873-.663.747-1.2-.125-.538-.665-.878-1.2-.747-3.09.72-5.904 2.282-8.141 4.52-2.237 2.236-3.8 5.051-4.52 8.141-.126.537.209 1.075.747 1.2.076.019.152.026.228.026.454 0 .865-.312.973-.773.635-2.725 2.014-5.207 3.986-7.18s4.456-3.352 7.18-3.987z"/><path d="m48.661 36.001c.126-.537-.209-1.075-.747-1.2-.538-.133-1.075.209-1.2.747-.635 2.725-2.014 5.207-3.986 7.18s-4.455 3.352-7.18 3.986c-.538.125-.873.663-.747 1.2.107.462.519.773.973.773.075 0 .151-.008.228-.026 3.09-.72 5.904-2.282 8.141-4.52 2.236-2.236 3.798-5.05 4.518-8.14z"/><path d="m26.495 16.925c-.119-.541-.653-.879-1.19-.763-4.557.997-8.146 4.586-9.143 9.143-.118.539.224 1.072.763 1.19.072.016.144.023.215.023.46 0 .873-.318.976-.786.831-3.796 3.821-6.786 7.617-7.617.538-.118.88-.651.762-1.19z"/><path d="m43.838 34.695c.118-.539-.224-1.072-.763-1.19-.54-.118-1.072.222-1.19.763-.831 3.796-3.821 6.786-7.617 7.617-.539.118-.881.651-.763 1.19.103.468.516.786.976.786.071 0 .143-.008.215-.023 4.556-.997 8.145-4.586 9.142-9.143z"/><path d="m38.08 30c0-4.455-3.625-8.08-8.08-8.08s-8.08 3.625-8.08 8.08 3.625 8.08 8.08 8.08 8.08-3.625 8.08-8.08zm-8.08 6.08c-3.353 0-6.08-2.728-6.08-6.08s2.728-6.08 6.08-6.08 6.08 2.728 6.08 6.08-2.727 6.08-6.08 6.08z"/></g></svg>