<svg enable-background="new 0 0 59.986 59.986" height="512" viewBox="0 0 59.986 59.986" width="512" xmlns="http://www.w3.org/2000/svg"><path d="m59.972 20.164c.007-.041.011-.081.013-.123.002-.049.001-.096-.003-.145-.004-.042-.01-.082-.02-.123-.011-.048-.026-.094-.044-.14-.009-.024-.011-.049-.022-.072-.008-.017-.022-.03-.031-.047s-.013-.035-.023-.052l-10-16c-.046-.073-.1-.139-.161-.197-.001-.001-.002-.001-.003-.002-.086-.081-.188-.139-.297-.185-.014-.006-.023-.018-.038-.024-.011-.004-.023-.002-.034-.005-.101-.034-.205-.057-.314-.057h-38c-.108 0-.211.023-.31.056-.011.003-.022.001-.032.005-.015.005-.024.017-.038.023-.104.043-.202.099-.287.175-.005.005-.012.008-.017.012-.062.058-.117.125-.163.198l-10 16c-.01.016-.014.035-.023.052s-.023.03-.031.047c-.011.023-.013.048-.023.072-.018.046-.033.092-.044.14-.009.041-.016.082-.02.124-.007.049-.008.097-.006.145.002.042.006.082.013.123.008.048.021.095.037.142.013.039.027.077.045.115.009.018.012.038.022.056.016.029.04.051.058.078.014.021.022.044.039.064l28.989 35.986c.002.003.004.005.006.007l.005.007c.003.004.008.005.011.009.082.099.184.174.295.234.03.016.058.03.089.043.121.051.249.087.383.087.114 0 .229-.02.343-.061.017-.006.028-.02.045-.027.051-.021.091-.055.137-.084.076-.048.147-.098.206-.163.014-.015.035-.022.048-.038l29-36c.016-.02.024-.044.039-.064.019-.027.042-.049.058-.078.01-.018.013-.038.022-.056.018-.038.032-.075.045-.115.014-.047.028-.093.036-.142zm-27.877-15.171h15.459l-4.86 13.045zm8.797 14h-21.797l10.898-13.413zm-23.67-.868-4.799-13.132h15.469zm24.371 2.868-11.775 31.606-11.549-31.606zm7.628-14.747 7.967 12.748h-12.716zm-38.465.013 4.653 12.734h-12.611zm5.384 14.734 10.839 29.664-23.896-29.664zm16.25 30.43 11.337-30.43h13.176z" fill="#c87137"/></svg>