<?xml version="1.0" encoding="UTF-8" standalone="no"?>
<svg
   xmlns:dc="http://purl.org/dc/elements/1.1/"
   xmlns:cc="http://creativecommons.org/ns#"
   xmlns:rdf="http://www.w3.org/1999/02/22-rdf-syntax-ns#"
   xmlns:svg="http://www.w3.org/2000/svg"
   xmlns="http://www.w3.org/2000/svg"
   xmlns:sodipodi="http://sodipodi.sourceforge.net/DTD/sodipodi-0.dtd"
   xmlns:inkscape="http://www.inkscape.org/namespaces/inkscape"
   inkscape:version="1.0rc1 (09960d6, 2020-04-09)"
   sodipodi:docname="logo-white.svg"
   id="svg2108"
   preserveAspectRatio="xMidYMid meet"
   viewBox="0 0 993.000000 488.000000"
   height="488.000000pt"
   width="993.000000pt"
   version="1.0">
  <defs
     id="defs2112" />
  <sodipodi:namedview
     inkscape:current-layer="g2106"
     inkscape:window-maximized="0"
     inkscape:window-y="23"
     inkscape:window-x="0"
     inkscape:cy="325.33333"
     inkscape:cx="292.56929"
     inkscape:zoom="0.40332326"
     showgrid="false"
     id="namedview2110"
     inkscape:window-height="707"
     inkscape:window-width="1381"
     inkscape:pageshadow="2"
     inkscape:pageopacity="0"
     guidetolerance="10"
     gridtolerance="10"
     objecttolerance="10"
     borderopacity="1"
     bordercolor="#666666"
     pagecolor="#ffffff" />
  <metadata
     id="metadata2050">
Created by potrace 1.16, written by Peter Selinger 2001-2019
<rdf:RDF>
  <cc:Work
     rdf:about="">
    <dc:format>image/svg+xml</dc:format>
    <dc:type
       rdf:resource="http://purl.org/dc/dcmitype/StillImage" />
    <dc:title></dc:title>
  </cc:Work>
</rdf:RDF>
</metadata>
  <g
     id="g2106"
     stroke="none"
     fill="#000000"
     transform="translate(0.000000,488.000000) scale(0.100000,-0.100000)">
    <path
       style="fill:#ffffff"
       id="path2052"
       d="M2400 3685 l0 -1165 60 0 60 0 0 1105 0 1105 28 0 c27 0 31 -9 401 -927 205 -511 377 -932 382 -937 5 -6 9 413 9 987 l0 997 -60 0 -60 0 -2 -689 -3 -690 -204 507 c-113 279 -238 589 -279 690 l-74 182 -129 0 -129 0 0 -1165z" />
    <path
       style="fill:#ffffff"
       id="path2054"
       d="M3400 3744 l0 -1105 -26 3 c-26 3 -44 46 -395 918 -203 503 -373 924 -378 935 -6 13 -10 -343 -10 -977 l-1 -998 60 0 60 0 2 680 3 680 274 -680 274 -680 129 0 128 0 0 1165 0 1165 -60 0 -60 0 0 -1106z" />
    <path
       style="fill:#ffffff"
       id="path2056"
       d="M50 4781 l0 -61 258 0 c293 0 363 -10 450 -62 84 -51 134 -125 168 -249 23 -81 26 -345 5 -429 -31 -124 -116 -249 -192 -280 -16 -7 -29 -15 -29 -19 0 -4 16 -15 36 -26 86 -46 153 -145 185 -275 9 -35 14 -111 14 -210 0 -165 -13 -238 -57 -330 -44 -90 -143 -165 -250 -190 -24 -5 -166 -10 -315 -10 l-273 0 0 -60 0 -60 283 0 c312 0 361 7 468 61 84 42 153 113 194 202 53 112 67 176 72 342 8 230 -22 371 -104 493 l-42 63 35 49 c86 120 118 263 111 494 -5 182 -24 268 -82 371 -36 65 -120 152 -175 180 -109 56 -125 59 -452 63 l-308 4 0 -61z" />
    <path
       style="fill:#ffffff"
       id="path2058"
       d="M1230 3680 l0 -1160 485 0 485 0 0 60 0 60 -425 0 -425 0 0 1040 0 1040 425 0 425 0 0 60 0 60 -485 0 -485 0 0 -1160z" />
    <path
       style="fill:#ffffff"
       id="path2060"
       d="M50 3680 l0 -980 60 0 60 0 0 980 0 980 -60 0 -60 0 0 -980z" />
    <path
       style="fill:#ffffff"
       id="path2062"
       d="M230 4186 l0 -476 158 0 c177 0 255 11 322 45 123 63 175 190 174 435 0 256 -60 382 -210 440 -52 20 -82 24 -251 28 l-193 4 0 -476z m392 334 c44 -13 102 -74 119 -127 20 -65 23 -310 5 -384 -34 -133 -90 -169 -272 -177 l-124 -5 0 352 0 351 118 0 c64 0 133 -5 154 -10z" />
    <path
       style="fill:#ffffff"
       id="path2064"
       d="M1420 4185 l0 -475 390 0 390 0 0 60 0 60 -330 0 -330 0 0 350 0 350 330 0 330 0 0 65 0 65 -390 0 -390 0 0 -475z" />
    <path
       style="fill:#ffffff"
       id="path2066"
       d="M230 3175 l0 -477 193 4 c224 6 270 16 342 80 86 76 120 186 119 393 0 260 -61 387 -214 447 -47 18 -82 22 -247 26 l-193 4 0 -477z m399 329 c50 -21 76 -48 103 -107 21 -48 23 -65 23 -227 0 -168 -1 -177 -26 -231 -44 -94 -104 -119 -285 -119 l-94 0 0 357 0 356 121 -7 c70 -4 137 -13 158 -22z" />
    <path
       style="fill:#ffffff"
       id="path2068"
       d="M1420 3175 l0 -475 390 0 390 0 0 60 0 60 -330 0 -330 0 0 350 0 350 328 2 327 3 3 63 3 62 -391 0 -390 0 0 -475z" />
    <path
       style="fill:#ffffff"
       id="path2070"
       d="M6650 2419 c-221 -19 -377 -160 -442 -398 -18 -65 -22 -112 -26 -338 l-4 -262 -48 -3 -49 -3 122 -202 c67 -111 126 -201 132 -199 5 1 65 93 132 204 l123 202 -55 0 -55 0 0 168 c0 300 24 418 96 482 45 39 103 54 187 47 81 -7 121 -28 159 -82 49 -71 58 -134 58 -402 0 -134 3 -243 8 -243 4 0 31 41 60 90 l52 89 0 158 c0 233 -25 324 -111 418 -63 68 -122 89 -254 90 -98 0 -116 -3 -166 -26 -64 -30 -120 -84 -148 -143 -45 -93 -53 -149 -58 -433 l-6 -272 52 -3 51 -3 -61 -100 c-34 -55 -63 -101 -64 -103 -2 -2 -114 180 -123 200 -2 5 17 8 41 8 l45 0 4 288 c4 281 4 288 31 365 31 90 60 138 113 189 112 107 336 134 490 58 161 -79 234 -250 234 -551 l0 -129 58 -93 57 -92 3 215 c3 238 -7 344 -44 461 -35 110 -93 192 -183 257 -114 81 -227 106 -411 91z" />
    <path
       style="fill:#ffffff"
       id="path2072"
       d="M7440 1265 l0 -1165 60 0 60 0 0 1100 0 1100 29 0 c27 0 32 -6 59 -72 16 -40 184 -455 372 -923 188 -467 346 -854 351 -859 5 -6 9 394 9 987 l0 997 -60 0 -60 0 -2 -691 -3 -691 -106 263 c-58 145 -184 456 -279 692 l-172 427 -129 0 -129 0 0 -1165z" />
    <path
       style="fill:#ffffff"
       id="path2074"
       d="M8440 1324 l0 -1105 -27 3 c-25 3 -42 42 -400 928 -205 509 -375 930 -377 935 -2 6 -5 -439 -5 -987 l-1 -998 60 0 60 0 0 683 1 682 85 -210 c47 -115 171 -423 276 -683 l190 -472 129 0 129 0 0 1165 0 1165 -60 0 -60 0 0 -1106z" />
    <path
       style="fill:#ffffff"
       id="path2076"
       d="M70 1260 l0 -1160 60 0 60 0 0 1160 0 1160 -60 0 -60 0 0 -1160z" />
    <path
       style="fill:#ffffff"
       id="path2078"
       d="M260 1855 l0 -565 340 0 340 0 0 565 0 565 -60 0 -60 0 0 -505 0 -505 -220 0 -220 0 0 505 0 505 -60 0 -60 0 0 -565z" />
    <path
       style="fill:#ffffff"
       id="path2080"
       d="M1000 1260 l0 -1160 65 0 65 0 0 1160 0 1160 -65 0 -65 0 0 -1160z" />
    <path
       style="fill:#ffffff"
       id="path2082"
       d="M1926 2403 c-2 -10 -122 -526 -266 -1148 -144 -621 -263 -1138 -266 -1147 -5 -16 2 -18 58 -18 l63 0 234 1013 c129 556 243 1049 254 1095 18 79 20 82 47 82 25 0 31 -5 39 -37 6 -21 116 -497 246 -1058 130 -561 240 -1037 246 -1057 l10 -38 59 0 c41 0 60 4 60 13 0 6 -120 531 -267 1165 l-267 1152 -122 0 c-108 0 -123 -2 -128 -17z" />
    <path
       style="fill:#ffffff"
       id="path2084"
       d="M2840 1260 l0 -1160 60 0 60 0 0 1101 0 1100 27 -3 c27 -3 28 -6 303 -960 151 -527 277 -958 280 -958 3 0 129 432 280 960 l275 960 28 0 27 0 0 -1100 0 -1100 60 0 60 0 0 1160 0 1160 -135 0 -134 0 -11 -37 c-6 -21 -109 -382 -229 -803 -121 -421 -222 -758 -225 -750 -6 15 -456 1580 -456 1587 0 2 -61 3 -135 3 l-135 0 0 -1160z" />
    <path
       style="fill:#ffffff"
       id="path2086"
       d="M4530 1260 l0 -1160 60 0 60 0 0 1100 0 1100 28 0 27 0 274 -953 c150 -523 277 -956 282 -961 4 -5 11 2 14 15 3 13 126 445 274 959 266 931 267 935 294 938 l27 3 0 -1100 0 -1101 60 0 60 0 0 1160 0 1160 -134 0 -134 0 -228 -804 c-126 -442 -230 -803 -231 -802 -1 1 -97 333 -213 736 -116 404 -220 765 -231 803 l-20 67 -134 0 -135 0 0 -1160z" />
    <path
       style="fill:#ffffff"
       id="path2088"
       d="M8780 2361 l0 -61 248 0 c136 0 275 -5 310 -10 194 -32 304 -136 359 -340 16 -59 18 -124 18 -695 0 -583 -1 -635 -19 -700 -52 -197 -166 -303 -358 -335 -35 -5 -174 -10 -310 -10 l-248 0 0 -60 0 -60 253 0 c138 0 284 5 322 10 276 39 438 220 475 530 14 115 13 1140 -1 1255 -32 265 -157 437 -368 507 -61 20 -91 22 -373 26 l-308 4 0 -61z" />
    <path
       style="fill:#ffffff"
       id="path2090"
       d="M8780 1255 l0 -975 60 0 60 0 0 975 0 975 -60 0 -60 0 0 -975z" />
    <path
       style="fill:#ffffff"
       id="path2092"
       d="M8960 1255 l0 -977 208 4 c186 4 213 6 264 26 106 42 172 133 203 279 22 105 22 1232 -1 1340 -28 138 -81 216 -182 265 l-66 33 -213 3 -213 3 0 -976z m438 832 c43 -23 89 -88 110 -156 15 -50 17 -117 17 -676 0 -686 0 -683 -65 -773 -48 -67 -74 -75 -237 -80 l-143 -4 0 857 0 857 143 -4 c110 -3 149 -8 175 -21z" />
    <path
       style="fill:#ffffff"
       id="path2094"
       d="M1911 1522 c-74 -317 -136 -583 -139 -589 -3 -10 56 -13 278 -13 263 0 281 1 276 18 -7 22 -266 1150 -266 1157 0 3 -3 5 -7 5 -5 0 -68 -260 -142 -578z m258 -454 c1 -16 -11 -18 -119 -18 -66 0 -120 3 -120 6 0 8 98 430 112 479 10 39 12 32 69 -205 32 -135 58 -253 58 -262z" />
    <path
       style="fill:#ffffff"
       id="path2096"
       d="M3020 1057 l0 -957 60 0 60 0 2 531 3 531 144 -499 c79 -274 148 -513 153 -531 l9 -32 118 0 118 0 93 322 c51 178 122 420 156 538 l63 215 0 -537 1 -538 60 0 60 0 0 957 c0 561 -4 953 -9 947 -5 -5 -127 -424 -272 -931 -145 -508 -266 -923 -269 -923 -3 0 -124 415 -269 923 -145 507 -268 926 -272 932 -5 5 -9 -415 -9 -948z" />
    <path
       style="fill:#ffffff"
       id="path2098"
       d="M4710 1055 l0 -955 60 0 60 0 2 535 3 535 154 -535 155 -535 117 0 117 0 16 53 c9 28 77 267 153 529 l138 477 3 -529 2 -530 60 0 60 0 0 957 c0 526 -3 953 -7 949 -4 -4 -127 -427 -274 -939 l-266 -932 -15 50 c-8 28 -129 449 -269 937 -140 488 -257 888 -261 888 -5 0 -8 -430 -8 -955z" />
    <path
       style="fill:#ffffff"
       id="path2100"
       d="M7011 1221 c-66 -110 -121 -202 -121 -205 0 -3 21 -6 46 -6 l46 0 -4 -208 -3 -207 -33 -68 c-27 -54 -42 -72 -79 -94 -40 -23 -57 -27 -127 -27 -133 0 -188 41 -228 166 -15 49 -21 106 -26 261 l-7 198 -59 -96 -58 -96 6 -102 c12 -180 41 -277 106 -351 128 -146 431 -134 544 22 69 94 79 147 84 420 l4 242 -46 0 -45 0 60 100 c33 55 64 100 68 100 4 0 35 -45 69 -100 l61 -100 -48 0 -49 0 -5 -232 c-4 -177 -9 -248 -22 -293 -40 -143 -113 -236 -225 -289 -61 -29 -72 -31 -185 -31 -114 0 -123 2 -187 32 -164 77 -234 211 -245 468 l-5 130 -56 95 c-69 115 -66 122 -59 -170 5 -231 17 -292 74 -407 60 -124 201 -235 331 -262 76 -16 228 -14 297 4 146 37 267 133 328 258 55 113 69 192 74 425 l6 212 48 0 c27 0 49 2 49 5 0 10 -244 405 -250 405 -4 0 -62 -90 -129 -199z" />
    <path
       style="fill:#ffffff"
       id="path2102"
       d="M260 665 l0 -565 60 0 60 0 0 505 0 505 220 0 220 0 0 -505 0 -505 60 0 60 0 0 565 0 565 -340 0 -340 0 0 -565z" />
    <path
       style="fill:#ffffff"
       id="path2104"
       d="M1755 848 c-2 -7 -41 -170 -85 -363 -45 -192 -83 -360 -87 -373 -5 -21 -3 -22 59 -22 l65 0 74 325 74 325 198 0 c108 0 197 -2 197 -5 0 -7 139 -604 146 -627 4 -15 17 -18 65 -18 32 0 59 3 59 8 0 4 -39 177 -87 385 l-87 377 -293 0 c-226 0 -295 -3 -298 -12z" />
  </g>
</svg>
